<?xml version="1.0" encoding="utf-8"?>
<!-- Svg Vector Icons : http://www.onlinewebfonts.com/icon -->
<!DOCTYPE svg PUBLIC "-//W3C//DTD SVG 1.1//EN" "http://www.w3.org/Graphics/SVG/1.1/DTD/svg11.dtd">
<svg version="1.1" xmlns="http://www.w3.org/2000/svg" xmlns:xlink="http://www.w3.org/1999/xlink" x="0px" y="0px" viewBox="0 0 1000 1000" enable-background="new 0 0 1000 1000" xml:space="preserve">
<metadata> Svg Vector Icons : http://www.onlinewebfonts.com/icon </metadata>
<g><g transform="translate(0.000000,511.000000) scale(0.100000,-0.100000)"><path d="M4345.1,2824.4C3357.5,2650,2370,2149.2,1404.9,1336C1129.2,1105.3,524.3,503.2,290.8,230.3C17.8-93.2,15-87.6,431.4-492.8c748.4-725.9,1612.2-1316.7,2470.3-1682.5c1536.2-658.4,2965.5-610.5,4527,157.5c455.8,225.1,1105.8,641.5,1525,979.1c402.3,323.6,863.8,765.3,917.2,875c61.9,129.4,47.8,154.7-272.9,517.7c-897.5,1024.2-2065.2,1868.2-3100.5,2245.2c-528.9,191.3-807.5,242-1406.8,253.2C4730.6,2858.2,4488.6,2849.7,4345.1,2824.4z M5639.3,2424.9c576.8-98.5,1344.9-424.9,1941.4-821.6C8137.8,1231.9,8799,658,9254.8,148.7l194.2-219.5l-222.3-213.8c-770.9-737.2-1792.2-1375.8-2703.8-1691c-1288.6-444.5-2436.6-348.9-3767.4,309.5C2043.6-1317.1,1345.8-824.8,788.8-284.6l-250.4,242l475.5,478.3c517.7,520.5,891.9,830,1389.9,1162C3526.3,2340.5,4581.4,2607.8,5639.3,2424.9z"/><path d="M4598.3,2205.4c-453-98.5-754-264.5-1083.2-593.7c-281.4-278.5-433.3-528.9-554.3-914.4c-53.5-174.4-64.7-270.1-64.7-562.7c0-410.8,45-607.7,211-942.5c360.1-731.5,1063.5-1170.4,1885.1-1173.3c368.6-2.8,602.1,50.7,956.6,225.1c230.7,109.7,303.9,166,534.6,396.7c219.5,219.5,292.6,315.1,388.3,509.2c303.9,613.4,315.1,1328,25.3,1902c-278.6,551.5-782.2,967.9-1356.1,1122.6C5301.7,2236.4,4823.4,2253.3,4598.3,2205.4z M5428.3,1794.6c669.6-171.6,1184.5-751.2,1280.2-1446.2c118.2-830-422-1643.1-1252-1890.7c-264.5-78.8-697.7-67.5-984.7,25.3C3776.8-1289,3275.9-613.8,3275.9,92.4c0,303.9,47.8,509.3,185.7,793.4c205.4,424.8,576.8,745.6,1038.2,889.1C4789.6,1867.8,5118.8,1873.4,5428.3,1794.6z"/><path d="M4691.2,1065.9c-281.4-95.7-469.9-264.5-596.5-537.4c-61.9-129.4-73.2-194.1-73.2-408c0-309.5,56.3-450.2,267.3-672.4c199.8-211,422-309.5,703.4-306.7c289.8,0,492.4,81.6,686.5,270.1C5847.5-419.6,5940.4-248,5977-22.9C6092.3,694.5,5374.8,1302.3,4691.2,1065.9z M5155.4,691.7c194.2-47.8,382.6-244.8,427.7-447.4c56.3-253.2-39.4-492.4-256-635.9c-157.5-104.1-416.4-123.8-576.8-42.2C4181.9-141.1,4347.9,672,4986.6,722.7C5006.3,725.5,5082.3,711.4,5155.4,691.7z"/></g></g>
</svg>